<svg width="115" height="105" viewBox="0 0 115 105" fill="none" xmlns="http://www.w3.org/2000/svg">
<path d="M109.375 52.0833V93.75C109.375 96.5127 108.278 99.1622 106.324 101.116C104.371 103.069 101.721 104.167 98.9583 104.167H15.625C12.8623 104.167 10.2128 103.069 8.2593 101.116C6.3058 99.1622 5.20833 96.5127 5.20833 93.75V52.0833C3.827 52.0833 2.50224 51.5346 1.52549 50.5578C0.548733 49.5811 0 48.2563 0 46.875V31.25C0 28.4873 1.09747 25.8378 3.05097 23.8843C5.00448 21.9308 7.654 20.8333 10.4167 20.8333H26.9271C26.3385 19.1601 26.039 17.3988 26.0417 15.625C26.0417 11.481 27.6879 7.50671 30.6181 4.57646C33.5484 1.6462 37.5227 0 41.6667 0C46.875 0 51.4583 2.60417 54.3229 6.45833V6.40625L57.2917 10.4167L60.2604 6.40625V6.45833C63.125 2.60417 67.7083 0 72.9167 0C77.0607 0 81.035 1.6462 83.9652 4.57646C86.8955 7.50671 88.5417 11.481 88.5417 15.625C88.5443 17.3988 88.2449 19.1601 87.6562 20.8333H104.167C106.929 20.8333 109.579 21.9308 111.532 23.8843C113.486 25.8378 114.583 28.4873 114.583 31.25V46.875C114.583 48.2563 114.035 49.5811 113.058 50.5578C112.081 51.5346 110.756 52.0833 109.375 52.0833ZM15.625 93.75H52.0833V52.0833H15.625V93.75ZM98.9583 93.75V52.0833H62.5V93.75H98.9583ZM41.6667 10.4167C40.2853 10.4167 38.9606 10.9654 37.9838 11.9422C37.0071 12.9189 36.4583 14.2437 36.4583 15.625C36.4583 17.0063 37.0071 18.3311 37.9838 19.3078C38.9606 20.2846 40.2853 20.8333 41.6667 20.8333C43.048 20.8333 44.3728 20.2846 45.3495 19.3078C46.3263 18.3311 46.875 17.0063 46.875 15.625C46.875 14.2437 46.3263 12.9189 45.3495 11.9422C44.3728 10.9654 43.048 10.4167 41.6667 10.4167ZM72.9167 10.4167C71.5353 10.4167 70.2106 10.9654 69.2338 11.9422C68.2571 12.9189 67.7083 14.2437 67.7083 15.625C67.7083 17.0063 68.2571 18.3311 69.2338 19.3078C70.2106 20.2846 71.5353 20.8333 72.9167 20.8333C74.298 20.8333 75.6228 20.2846 76.5995 19.3078C77.5763 18.3311 78.125 17.0063 78.125 15.625C78.125 14.2437 77.5763 12.9189 76.5995 11.9422C75.6228 10.9654 74.298 10.4167 72.9167 10.4167ZM10.4167 31.25V41.6667H52.0833V31.25H10.4167ZM62.5 31.25V41.6667H104.167V31.25H62.5Z" fill="#60A7D3"/>
</svg>
